<svg xmlns="http://www.w3.org/2000/svg" viewBox="0 0 370.8 512">
  <title>send-location</title>
  <path d="M185.4,0C83.2,0,0,83.2,0,185.4,0,312.3,165.9,498.6,173,506.5a16.7,16.7,0,0,0,23.6,1.2h0l1.2-1.2c7.1-7.9,173-194.2,173-321.1C370.8,83.2,287.6,0,185.4,0ZM304.1,206.5,204,306.5a4.8,4.8,0,0,1-3.6,1.5,4.1,4.1,0,0,1-1.9-.4,5.1,5.1,0,0,1-3.1-4.6V248.2H70.4a5,5,0,0,1-5-5v-80a5,5,0,0,1,5-5h125v-55a5.1,5.1,0,0,1,3.1-4.7,5.3,5.3,0,0,1,5.5,1.1l100.1,99.8a5.1,5.1,0,0,1,1.5,3.5A5.5,5.5,0,0,1,304.1,206.5Z"/>
</svg>